<svg xmlns="http://www.w3.org/2000/svg" data-name="Layer 1" width="285.27823" height="307.90994" viewBox="0 0 285.27823 307.90994" xmlns:xlink="http://www.w3.org/1999/xlink"><path d="M593.2948,301.96412c37.62-18.924,90.00664,9.983,94.05484,51.89953s-41.83827,80.31447-82.38448,68.93962S529.49071,334.05944,593.2948,301.96412Z" transform="translate(-457.36089 -296.04503)" fill="#a0fff0"/><path d="M567.70152,492.93675q-1.43229.17542-2.86358.35111C566.4125,493.1142,567.30054,493.00029,567.70152,492.93675Z" transform="translate(-457.36089 -296.04503)"/><path d="M731.35944,599.68667c-16.096-33.92106-38.057-65.04563-63.09412-92.94182-14.55286-14.81537-31.09647-27.45647-48.28812-39.0822,29.8682-27.458,48.58885-70.52726,37.58308-110.75318-9.13959-32.17081-42.7017-55.12888-75.58841-42.60777-10.55416,4.13413-20.52,9.65575-30.34006,15.27964,14.5721-4.08755,29.30115-9.88358,44.65294-9.136a38.80764,38.80764,0,0,1,18.88369,6.957c3.39924,1.83936,9.31881,6.99316,12.72413,11.56751,13.89468,23.47474,12.28973,37.89242,2.11124,67.23407-14.38376,31.58833-53.4037,66.7612-85.30111,56.81864-7.164-1.74823-28.03137-21.12-30.90306-36.81984-11.17083-41.5514,5.93374-85.68134,59.96726-96.6337-59.13289-1.1546-91.69153,49.40677-82.1783,104.67513,5.19355,25.54421,23.83725,49.78852,49.166,57.713a62.18,62.18,0,0,0,22.41862,1.55179c2.7198-.50908,5.6887-.75539,4.52827-.57211.17113-.021.34226-.04177.51237-.06278,17.947-1.12169,33.84158-10.09066,47.4254-21.35692,12.05684,14.87765,24.46808,29.46747,36.70213,44.19829a566.95994,566.95994,0,0,0,52.06505,58.60584c9.46868,10.04205,19.01634,20.01322,28.91738,29.63379C732.67276,602.53178,732.02167,601.10606,731.35944,599.68667Z" transform="translate(-457.36089 -296.04503)"/><path d="M733.32369,438.19c-12.43625.30823-12.404,18.52783,0,18.86975C745.76052,456.75151,745.728,438.53205,733.32369,438.19Z" transform="translate(-457.36089 -296.04503)"/><path d="M466.676,296.045c-12.43625.30823-12.404,18.52783,0,18.86975C479.11281,314.60655,479.08027,296.38709,466.676,296.045Z" transform="translate(-457.36089 -296.04503)"/><path d="M475.99124,515.22236c-12.43625.30823-12.404,18.52783,0,18.86975C488.42807,533.78388,488.39553,515.56442,475.99124,515.22236Z" transform="translate(-457.36089 -296.04503)"/></svg>